<svg width="32" height="33" viewBox="0 0 32 33" fill="none" xmlns="http://www.w3.org/2000/svg">
<g clip-path="url(#clip0_24708_2646)">
<path d="M8 16.5C8 18.6217 8.84286 20.6566 10.3431 22.1569C11.8434 23.6571 13.8783 24.5 16 24.5C18.1217 24.5 20.1566 23.6571 21.6569 22.1569C23.1571 20.6566 24 18.6217 24 16.5C24 14.3783 23.1571 12.3434 21.6569 10.8431C20.1566 9.34286 18.1217 8.5 16 8.5C13.8783 8.5 11.8434 9.34286 10.3431 10.8431C8.84286 12.3434 8 14.3783 8 16.5Z" stroke="black" stroke-width="1.5" stroke-linecap="round" stroke-linejoin="round"/>
<path d="M4 11.1667C4 11.8739 4.28095 12.5522 4.78105 13.0523C5.28115 13.5524 5.95942 13.8333 6.66667 13.8333C7.37391 13.8333 8.05219 13.5524 8.55229 13.0523C9.05238 12.5522 9.33333 11.8739 9.33333 11.1667C9.33333 10.4594 9.05238 9.78115 8.55229 9.28105C8.05219 8.78095 7.37391 8.5 6.66667 8.5C5.95942 8.5 5.28115 8.78095 4.78105 9.28105C4.28095 9.78115 4 10.4594 4 11.1667Z" stroke="black" stroke-width="1.5" stroke-linecap="round" stroke-linejoin="round"/>
<path d="M13.3335 5.83366C13.3335 6.5409 13.6144 7.21918 14.1145 7.71928C14.6146 8.21937 15.2929 8.50033 16.0002 8.50033C16.7074 8.50033 17.3857 8.21937 17.8858 7.71928C18.3859 7.21918 18.6668 6.5409 18.6668 5.83366C18.6668 5.12641 18.3859 4.44814 17.8858 3.94804C17.3857 3.44794 16.7074 3.16699 16.0002 3.16699C15.2929 3.16699 14.6146 3.44794 14.1145 3.94804C13.6144 4.44814 13.3335 5.12641 13.3335 5.83366Z" stroke="black" stroke-width="1.5" stroke-linecap="round" stroke-linejoin="round"/>
<path d="M22.6667 11.1667C22.6667 11.8739 22.9477 12.5522 23.4478 13.0523C23.9479 13.5524 24.6262 13.8333 25.3334 13.8333C26.0407 13.8333 26.7189 13.5524 27.219 13.0523C27.7191 12.5522 28.0001 11.8739 28.0001 11.1667C28.0001 10.4594 27.7191 9.78115 27.219 9.28105C26.7189 8.78095 26.0407 8.5 25.3334 8.5C24.6262 8.5 23.9479 8.78095 23.4478 9.28105C22.9477 9.78115 22.6667 10.4594 22.6667 11.1667Z" stroke="black" stroke-width="1.5" stroke-linecap="round" stroke-linejoin="round"/>
<path d="M4 21.8337C4 22.5409 4.28095 23.2192 4.78105 23.7193C5.28115 24.2194 5.95942 24.5003 6.66667 24.5003C7.37391 24.5003 8.05219 24.2194 8.55229 23.7193C9.05238 23.2192 9.33333 22.5409 9.33333 21.8337C9.33333 21.1264 9.05238 20.4481 8.55229 19.948C8.05219 19.4479 7.37391 19.167 6.66667 19.167C5.95942 19.167 5.28115 19.4479 4.78105 19.948C4.28095 20.4481 4 21.1264 4 21.8337Z" stroke="black" stroke-width="1.5" stroke-linecap="round" stroke-linejoin="round"/>
<path d="M22.6665 21.8337C22.6665 22.5409 22.9475 23.2192 23.4476 23.7193C23.9477 24.2194 24.6259 24.5003 25.3332 24.5003C26.0404 24.5003 26.7187 24.2194 27.2188 23.7193C27.7189 23.2192 27.9998 22.5409 27.9998 21.8337C27.9998 21.1264 27.7189 20.4481 27.2188 19.948C26.7187 19.4479 26.0404 19.167 25.3332 19.167C24.6259 19.167 23.9477 19.4479 23.4476 19.948C22.9475 20.4481 22.6665 21.1264 22.6665 21.8337Z" stroke="black" stroke-width="1.5" stroke-linecap="round" stroke-linejoin="round"/>
<path d="M10.6667 29.8333L16.0001 16.5L21.3334 29.8333" stroke="black" stroke-width="1.5" stroke-linecap="round" stroke-linejoin="round"/>
</g>
<defs>
<clipPath id="clip0_24708_2646">
<rect width="32" height="32" fill="white" transform="translate(0 0.5)"/>
</clipPath>
</defs>
</svg>
