<svg width="23" height="23" viewBox="0 0 23 23" fill="none" xmlns="http://www.w3.org/2000/svg">
<g clip-path="url(#clip0_198_18074)">
<path d="M17.4463 12.0392C17.4764 15.2922 20.3002 16.3748 20.3313 16.3886C20.3075 16.4648 19.8803 17.9314 18.8438 19.4459C17.9479 20.7554 17.0179 22.06 15.5532 22.0873C14.1139 22.1136 13.6511 21.2336 12.0054 21.2336C10.3602 21.2336 9.84618 22.06 8.48358 22.1136C7.06959 22.1673 5.99283 20.6974 5.08945 19.3929C3.24359 16.7241 1.83289 11.8515 3.72703 8.5624C4.66796 6.92902 6.34979 5.89483 8.17507 5.86818C9.56345 5.84171 10.874 6.80219 11.7227 6.80219C12.5709 6.80219 14.1634 5.64705 15.8376 5.81662C16.5386 5.84586 18.5059 6.09969 19.7692 7.94902C19.6676 8.01217 17.4219 9.31958 17.4463 12.0392ZM14.7413 4.05121C15.4919 3.14264 15.9972 1.87745 15.8594 0.619019C14.7773 0.662449 13.4689 1.34003 12.6928 2.24825C11.9973 3.05232 11.3882 4.33965 11.5524 5.57317C12.7586 5.6666 13.9906 4.9603 14.7413 4.05121Z" fill="#252525"/>
</g>
<defs>
<clipPath id="clip0_198_18074">
<rect width="22.1476" height="22.1476" fill="white" transform="translate(0.510803 0.292908)"/>
</clipPath>
</defs>
</svg>
