<svg width="32" height="33" viewBox="0 0 32 33" fill="none" xmlns="http://www.w3.org/2000/svg">
<g clip-path="url(#clip0_24708_2636)">
<path d="M4 19.1671C5.10667 20.0231 6.76933 20.5231 8.66667 20.5004C10.564 20.5231 12.2267 20.0231 13.3333 19.1671C14.44 18.3111 16.1027 17.8111 18 17.8337C19.8973 17.8111 21.56 18.3111 22.6667 19.1671" stroke="black" stroke-width="1.5" stroke-linecap="round" stroke-linejoin="round"/>
<path d="M10.6666 4.5C10.2446 4.80289 9.90265 5.20396 9.67035 5.66857C9.43805 6.13317 9.32234 6.64734 9.33322 7.16667C9.32234 7.68599 9.43805 8.20016 9.67035 8.66477C9.90265 9.12937 10.2446 9.53044 10.6666 9.83333" stroke="black" stroke-width="1.5" stroke-linecap="round" stroke-linejoin="round"/>
<path d="M16.0001 4.5C15.5781 4.80289 15.2362 5.20396 15.0038 5.66857C14.7715 6.13317 14.6558 6.64734 14.6667 7.16667C14.6558 7.68599 14.7715 8.20016 15.0038 8.66477C15.2362 9.12937 15.5781 9.53044 16.0001 9.83333" stroke="black" stroke-width="1.5" stroke-linecap="round" stroke-linejoin="round"/>
<path d="M4 13.833H22.6667V20.4997C22.6667 22.6214 21.8238 24.6562 20.3235 26.1565C18.8232 27.6568 16.7884 28.4997 14.6667 28.4997H12C9.87827 28.4997 7.84344 27.6568 6.34315 26.1565C4.84285 24.6562 4 22.6214 4 20.4997V13.833Z" stroke="black" stroke-width="1.5" stroke-linecap="round" stroke-linejoin="round"/>
<path d="M22.3279 22.8013C22.9233 23.0746 23.5768 23.1975 24.2309 23.1592C24.885 23.1208 25.5197 22.9223 26.0791 22.5812C26.6385 22.2401 27.1056 21.7668 27.4392 21.2029C27.7729 20.639 27.9629 20.0018 27.9926 19.3473C28.0223 18.6928 27.8907 18.0409 27.6095 17.4492C27.3283 16.8574 26.906 16.3437 26.3798 15.9534C25.8535 15.563 25.2394 15.3079 24.5915 15.2105C23.9436 15.1131 23.2816 15.1763 22.6639 15.3946" stroke="black" stroke-width="1.5" stroke-linecap="round" stroke-linejoin="round"/>
</g>
<defs>
<clipPath id="clip0_24708_2636">
<rect width="32" height="32" fill="white" transform="translate(0 0.5)"/>
</clipPath>
</defs>
</svg>
