<svg width="32" height="33" viewBox="0 0 32 33" fill="none" xmlns="http://www.w3.org/2000/svg">
<g clip-path="url(#clip0_24708_2620)">
<path d="M6.58534 7.57692C7.37434 7.57692 8.01392 6.88813 8.01392 6.03846C8.01392 5.18879 7.37434 4.5 6.58534 4.5C6.05656 4.5 5.59492 4.80938 5.34792 5.26923H5.15677C3.97331 5.26923 3.01392 6.30242 3.01392 7.57692V14.5H4.44249V7.57692C4.44249 7.15209 4.76229 6.80769 5.15677 6.80769H5.34792C5.59492 7.26754 6.05656 7.57692 6.58534 7.57692Z" fill="#333333"/>
<path fill-rule="evenodd" clip-rule="evenodd" d="M5.22096 14.6111H4.31753H2.76018C2.33013 14.6111 1.97785 14.9601 2.01688 15.3879C2.19791 17.3721 3.06829 19.2404 4.49029 20.6608C5.53305 21.7023 6.81694 22.4476 8.21093 22.8423V24.7222C8.21093 25.7383 8.86112 26.6027 9.76859 26.9229C9.80177 30.0087 12.3165 32.5 15.4137 32.5C18.5316 32.5 21.0591 29.9754 21.0591 26.8611V23.75C21.0591 22.1391 22.3664 20.8333 23.9792 20.8333C25.5919 20.8333 26.8992 22.1391 26.8992 23.75V25.6328C25.9919 25.9531 25.3418 26.8174 25.3418 27.8333C25.3418 29.122 26.3877 30.1667 27.6779 30.1667C28.9681 30.1667 30.0139 29.122 30.0139 27.8333C30.0139 26.8174 29.3639 25.9531 28.4566 25.6328V23.75C28.4566 21.2801 26.4519 19.2778 23.9792 19.2778C21.5064 19.2778 19.5018 21.2801 19.5018 23.75V26.8611C19.5018 29.1163 17.6715 30.9444 15.4137 30.9444C13.1765 30.9444 11.359 29.1494 11.3261 26.9226C12.2332 26.6022 12.883 25.738 12.883 24.7222V22.8423C14.277 22.4476 15.5609 21.7023 16.6037 20.6608C18.0257 19.2404 18.896 17.3721 19.0771 15.3879C19.1162 14.9601 18.7638 14.6111 18.3337 14.6111V7.61111C18.3337 6.32245 17.2879 5.27778 15.9977 5.27778H15.7893C15.5201 4.81282 15.0168 4.5 14.4404 4.5C13.5802 4.5 12.883 5.19645 12.883 6.05556C12.883 6.91467 13.5802 7.61111 14.4404 7.61111C15.0168 7.61111 15.5201 7.29829 15.7893 6.83333H15.9977C16.4278 6.83333 16.7764 7.18156 16.7764 7.61111V14.6111H15.873C15.443 14.6111 15.1011 14.9618 15.0279 15.3852C14.869 16.3025 14.4304 17.1558 13.7624 17.8229C12.9097 18.6747 11.7531 19.1533 10.547 19.1533C9.34094 19.1533 8.18429 18.6747 7.33149 17.8229C6.66361 17.1558 6.22491 16.3025 6.06606 15.3852C5.99278 14.9618 5.65094 14.6111 5.22096 14.6111ZM16.4497 16.1667H17.3799C17.0889 17.4419 16.4432 18.6213 15.5025 19.5609C14.1882 20.8736 12.4057 21.6111 10.547 21.6111C8.68833 21.6111 6.90578 20.8736 5.59153 19.5609C4.65079 18.6213 4.00511 17.4419 3.71407 16.1667H4.64421C4.9173 17.2004 5.46032 18.1537 6.23028 18.9228C7.37517 20.0664 8.92793 20.7088 10.547 20.7088C12.1661 20.7088 13.7188 20.0664 14.8637 18.9228C15.6337 18.1537 16.1766 17.2004 16.4497 16.1667ZM27.6779 27.0556C28.1079 27.0556 28.4566 27.4038 28.4566 27.8333C28.4566 28.2629 28.1079 28.6111 27.6779 28.6111C27.2478 28.6111 26.8992 28.2629 26.8992 27.8333C26.8992 27.4038 27.2478 27.0556 27.6779 27.0556ZM11.3256 23.1667V24.7222C11.3256 25.1518 10.977 25.5 10.547 25.5C10.1169 25.5 9.76828 25.1518 9.76828 24.7222V23.1667H11.3256Z" fill="#333333"/>
</g>
<defs>
<clipPath id="clip0_24708_2620">
<rect width="32" height="32" fill="white" transform="translate(0 0.5)"/>
</clipPath>
</defs>
</svg>
