<svg width="32" height="33" viewBox="0 0 32 33" fill="none" xmlns="http://www.w3.org/2000/svg">
<path fill-rule="evenodd" clip-rule="evenodd" d="M21.8131 17.998L16.6895 20.9561L19.4504 25.7381L24.574 22.78C25.8945 22.0176 26.3469 20.3292 25.5845 19.0086C24.8221 17.6881 23.1336 17.2356 21.8131 17.998ZM20.2392 27.1044L25.3628 24.1464C27.4379 22.9483 28.1488 20.2948 26.9508 18.2198C25.7527 16.1447 23.0993 15.4337 21.0243 16.6318L15.9007 19.5899C15.7918 19.4012 15.5506 19.3366 15.3619 19.4455L9.55526 22.798C7.2915 24.1049 6.51593 26.9996 7.82285 29.2633C9.12985 31.5271 12.0244 32.3026 14.2882 30.9957L20.0949 27.6432C20.2835 27.5343 20.3482 27.293 20.2392 27.1044ZM12.8264 22.5776L9.873 24.2653C8.6848 24.9443 8.15707 26.328 8.48451 27.5888C8.59408 28.0104 9.08804 28.1421 9.46628 27.9259C9.65544 27.8179 9.71618 27.5772 9.65189 27.3691C9.40996 26.5863 9.72936 25.7102 10.46 25.2927L13.4135 23.605C13.6971 23.4429 13.7957 23.0815 13.6336 22.7978C13.4715 22.5141 13.1101 22.4155 12.8264 22.5776Z" fill="#333333"/>
<path fill-rule="evenodd" clip-rule="evenodd" d="M15.4148 20.3259L13.0086 21.715C13.5255 21.6736 14.0442 21.9264 14.3185 22.4064C14.6967 23.0683 14.4668 23.9116 13.8048 24.2898L10.8515 25.9775C10.4545 26.2044 10.2683 26.692 10.4055 27.1361C10.5471 27.5944 10.4526 28.2708 9.8577 28.6108C9.48411 28.8242 9.03811 28.8761 8.63589 28.7483C8.54912 28.7207 8.46448 28.6847 8.3837 28.6403C8.42172 28.7173 8.46243 28.7935 8.50597 28.8689C9.59518 30.7553 12.0073 31.4017 13.8938 30.3126L19.3589 27.1573L15.4148 20.3259ZM16.6895 20.9561L21.8131 17.998C23.1336 17.2356 24.8221 17.6881 25.5845 19.0086C26.3469 20.3292 25.8945 22.0176 24.574 22.78L19.4504 25.7381L16.6895 20.9561ZM20.2392 27.1044L25.3628 24.1464C27.4379 22.9483 28.1488 20.2948 26.9508 18.2198C25.7527 16.1447 23.0993 15.4337 21.0243 16.6318L15.9007 19.5899C15.7918 19.4013 15.5506 19.3366 15.3619 19.4455L9.55526 22.798C7.2915 24.1049 6.51593 26.9996 7.82285 29.2633C9.12985 31.5271 12.0244 32.3026 14.2882 30.9957L20.0949 27.6432C20.2835 27.5343 20.3482 27.293 20.2392 27.1044ZM9.873 24.2653L12.8264 22.5776C13.1101 22.4155 13.4715 22.5141 13.6336 22.7978C13.7957 23.0815 13.6971 23.4429 13.4135 23.605L10.46 25.2927C9.72936 25.7102 9.40996 26.5863 9.65189 27.3691C9.71618 27.5772 9.65544 27.8179 9.46628 27.9259C9.08804 28.1421 8.59408 28.0104 8.48451 27.5888C8.15707 26.328 8.6848 24.9443 9.873 24.2653Z" fill="#333333"/>
<path d="M20.7292 3.0459C22.8666 1.75708 25.6849 2.03476 27.5291 3.87891C29.3728 5.72303 29.6498 8.54052 28.3611 10.6777L20.7292 3.0459Z" stroke="#333333" stroke-width="1.5"/>
<path d="M26.4636 12.5752C24.3263 13.8639 21.5089 13.5863 19.6648 11.7422C17.8208 9.89801 17.543 7.08063 18.8318 4.94336L26.4636 12.5752Z" stroke="#333333" stroke-width="1.5"/>
<path d="M8.16162 5.40234C8.48866 4.85302 9.272 4.87482 9.58252 5.39941L9.63818 5.51074L13.5083 14.9121C13.7425 15.481 13.2957 16.0977 12.6821 16.0527L3.61377 15.3877C3.00016 15.3427 2.64799 14.6683 2.9624 14.1396L8.16162 5.40234Z" stroke="#333333" stroke-width="1.5"/>
</svg>
