<svg width="32" height="33" viewBox="0 0 32 33" fill="none" xmlns="http://www.w3.org/2000/svg">
<g clip-path="url(#clip0_24708_2668)">
<path d="M2.49976 7.58203C2.68898 7.58208 2.8691 7.65027 3.00562 7.76855C3.13907 7.88436 3.22088 8.03973 3.24292 8.2041L3.24976 8.32227V17.8135H13.7498V9.75586C13.7498 9.58743 13.8129 9.42115 13.9324 9.29004C14.0505 9.16061 14.2163 9.07319 14.4001 9.0498L14.5115 9.04395H26.4998C27.4621 9.04389 28.385 9.40257 29.0798 10.041C29.7306 10.6391 30.1356 11.4395 30.2292 12.2949L30.2439 12.4668L30.2498 12.7002V24.3721C30.2493 24.5471 30.1803 24.7187 30.0515 24.8516C29.922 24.9853 29.7413 25.0698 29.5447 25.0811C29.3482 25.0923 29.1576 25.0292 29.0115 24.9102C28.868 24.7931 28.7786 24.6315 28.7556 24.46L28.7498 24.3428V19.2373H3.24976V24.3721C3.24931 24.5471 3.18027 24.7187 3.05151 24.8516C2.92196 24.9853 2.74127 25.0698 2.54468 25.0811C2.34822 25.0923 2.1576 25.0292 2.01147 24.9102C1.86801 24.7931 1.7786 24.6315 1.75562 24.46L1.74976 24.3428V8.29395C1.74976 8.11156 1.82406 7.93192 1.96265 7.79688C2.06693 7.69536 2.2014 7.62545 2.34839 7.59668L2.49976 7.58203Z" stroke="black" stroke-width="1.5"/>
<path d="M8.99976 10.582C9.43761 10.5822 9.86592 10.7103 10.2322 10.9502C10.5985 11.1901 10.8872 11.5313 11.0623 11.9326C11.2373 12.3339 11.2909 12.7774 11.2175 13.209C11.1442 13.6405 10.9469 14.0414 10.6492 14.3623C10.3513 14.6832 9.96579 14.9102 9.54077 15.0156C9.11597 15.1209 8.66973 15.1005 8.25659 14.9561C7.84325 14.8115 7.48024 14.5494 7.21362 14.2021C6.98032 13.8982 6.82931 13.5403 6.77319 13.1631L6.75562 13.001L6.74976 12.832L6.75562 12.6631C6.79825 12.0972 7.05323 11.5686 7.46948 11.1826C7.88573 10.7967 8.43207 10.5819 8.99976 10.582Z" stroke="black" stroke-width="1.5"/>
</g>
<defs>
<clipPath id="clip0_24708_2668">
<rect width="32" height="32" fill="white" transform="translate(0 0.5)"/>
</clipPath>
</defs>
</svg>
