<svg width="32" height="33" viewBox="0 0 32 33" fill="none" xmlns="http://www.w3.org/2000/svg">
<g clip-path="url(#clip0_24708_2607)">
<path d="M9.3335 5.83301V28.4997M5.3335 5.83301V9.83301C5.3335 10.3583 5.43696 10.8784 5.63798 11.3637C5.839 11.849 6.13363 12.29 6.50507 12.6614C6.8765 13.0329 7.31746 13.3275 7.80276 13.5285C8.28806 13.7295 8.80821 13.833 9.3335 13.833C9.85878 13.833 10.3789 13.7295 10.8642 13.5285C11.3495 13.3275 11.7905 13.0329 12.1619 12.6614C12.5334 12.29 12.828 11.849 13.029 11.3637C13.23 10.8784 13.3335 10.3583 13.3335 9.83301V5.83301" stroke="black" stroke-width="2" stroke-linecap="round" stroke-linejoin="round"/>
<path d="M18.6665 11.1663C18.6665 12.5808 19.0879 13.9374 19.8381 14.9376C20.5882 15.9378 21.6056 16.4997 22.6665 16.4997C23.7274 16.4997 24.7448 15.9378 25.4949 14.9376C26.2451 13.9374 26.6665 12.5808 26.6665 11.1663C26.6665 9.75185 26.2451 8.3953 25.4949 7.3951C24.7448 6.39491 23.7274 5.83301 22.6665 5.83301C21.6056 5.83301 20.5882 6.39491 19.8381 7.3951C19.0879 8.3953 18.6665 9.75185 18.6665 11.1663Z" stroke="black" stroke-width="2" stroke-linecap="round" stroke-linejoin="round"/>
<path d="M22.6667 16.5V28.5" stroke="black" stroke-width="2" stroke-linecap="round" stroke-linejoin="round"/>
</g>
<defs>
<clipPath id="clip0_24708_2607">
<rect width="32" height="32" fill="white" transform="translate(0 0.5)"/>
</clipPath>
</defs>
</svg>
