<svg width="33" height="33" viewBox="0 0 33 33" fill="none" xmlns="http://www.w3.org/2000/svg">
<g clip-path="url(#clip0_24708_2658)">
<path d="M7.5166 24.502C7.51309 23.9947 7.60257 23.403 7.72852 23.0596L7.73242 23.0469L7.73633 23.0352C8.02659 22.1517 8.52122 21.6157 9.71484 20.8193L10.4482 20.333L10.457 20.3262C11.2631 19.7741 11.809 19.2694 12.208 18.5479L12.209 18.5469C12.2692 18.4377 12.3298 18.3286 12.3906 18.2197L12.9062 17.3213L13.2256 16.7979L13.2266 16.7988C13.8428 15.8219 14.3093 15.2926 14.7695 14.9922C15.2039 14.7088 15.7044 14.583 16.5 14.583C17.3869 14.583 17.8924 14.7087 18.3242 15.0039C18.7889 15.3216 19.2583 15.8949 19.9229 17.0088V17.0098L20.2588 17.5859L20.6104 18.2168V18.2178C21.021 18.96 21.604 19.5114 22.4941 20.1631L22.499 20.167L23.2031 20.6738L23.5381 20.9219C24.5473 21.6856 24.9978 22.2355 25.2441 22.9912L25.248 23.0029L25.2529 23.0156C25.3942 23.4027 25.4834 23.9944 25.4834 24.5C25.4832 26.3932 24.1747 27.7443 22.5088 27.749L22.2139 27.7422H22.2148C22.0851 27.7356 21.96 27.7241 21.8291 27.7061L21.5215 27.6533C21.4252 27.6343 21.3189 27.6092 21.1973 27.5791L20.7891 27.4697L20.0615 27.251H20.0625L19.0439 26.9287L19.0322 26.9248L18.4258 26.7441L18.4141 26.7402L17.8838 26.6025C17.3733 26.4824 16.9189 26.416 16.5 26.416C15.9435 26.416 15.3209 26.5319 14.585 26.7402L14.5742 26.7441L13.9678 26.9248L13.9551 26.9287L12.9375 27.2529L12.1973 27.4736L11.9883 27.5312L11.626 27.6221L11.4736 27.6533L11.1729 27.7051C11.1097 27.7138 11.048 27.7216 10.9863 27.7275L10.7852 27.7422L10.4902 27.749C8.82383 27.7437 7.51667 26.3917 7.5166 24.5078V24.502Z" stroke="black" stroke-width="1.5"/>
<path d="M26.874 10.583C27.1402 10.583 27.405 10.6357 27.6494 10.7393V10.7402C28.3225 11.0313 28.7857 11.6518 28.9834 12.5244C29.1827 13.4041 29.0935 14.4914 28.6816 15.5566C27.9882 17.3434 26.6612 18.416 25.457 18.416C25.1926 18.416 24.9332 18.3638 24.6875 18.2598C24.0095 17.9677 23.5443 17.3476 23.3477 16.4766C23.1741 15.7074 23.2222 14.7784 23.5146 13.8438L23.6553 13.4434C24.2991 11.7843 25.4882 10.7389 26.6201 10.5986L26.8457 10.583H26.874Z" stroke="black" stroke-width="1.5"/>
<path d="M12.5332 5.25C13.9605 5.25 15.3558 6.65922 15.6855 8.76758C15.8564 9.8716 15.68 10.9216 15.2686 11.7021C14.8604 12.4763 14.2475 12.9505 13.5166 13.0488L13.4873 13.0527L13.3701 13.0732C13.3555 13.0753 13.3408 13.0758 13.3262 13.0771L13.1318 13.083C11.7077 13.0828 10.3118 11.6718 9.97949 9.56445C9.80903 8.46107 9.98602 7.41112 10.3975 6.63086C10.8059 5.85658 11.4191 5.38238 12.1494 5.28418L12.1631 5.2832L12.1768 5.28027L12.2861 5.26074L12.2871 5.26172C12.3412 5.25346 12.3912 5.25 12.5332 5.25Z" stroke="black" stroke-width="1.5"/>
<path d="M20.4626 5.25H20.4646C20.5628 5.24977 20.6613 5.25618 20.7585 5.26953H20.7595C21.5464 5.37632 22.1794 5.86481 22.5935 6.63477C23.0126 7.41419 23.1887 8.46185 23.0173 9.56641L22.9695 9.83789C22.5636 11.8036 21.2266 13.083 19.8679 13.083C19.7774 13.083 19.6805 13.0765 19.5691 13.0625C18.7844 12.9543 18.1532 12.4667 17.74 11.6982C17.3209 10.9187 17.1447 9.87126 17.3162 8.7666C17.6447 6.66011 19.0373 5.25007 20.4626 5.25Z" stroke="black" stroke-width="1.5"/>
<path d="M6.12256 10.583C7.32628 10.583 8.65161 11.6558 9.34521 13.4434C9.75909 14.5084 9.84958 15.5959 9.65088 16.4756C9.45407 17.3466 8.99057 17.968 8.31104 18.2617C8.06834 18.3638 7.80932 18.416 7.54443 18.416C6.34075 18.416 5.0154 17.3441 4.32178 15.5566V15.5557C3.90798 14.4907 3.81645 13.4031 4.01514 12.5234C4.21195 11.6526 4.67559 11.0301 5.35498 10.7363C5.59779 10.6341 5.85753 10.583 6.12256 10.583Z" stroke="black" stroke-width="1.5"/>
</g>
<defs>
<clipPath id="clip0_24708_2658">
<rect width="32" height="32" fill="white" transform="translate(0.5 0.5)"/>
</clipPath>
</defs>
</svg>
