<svg width="32" height="33" viewBox="0 0 32 33" fill="none" xmlns="http://www.w3.org/2000/svg">
<g clip-path="url(#clip0_24708_2546)">
<path d="M14.6667 5.83333C14.6667 6.18696 14.8072 6.52609 15.0573 6.77614C15.3073 7.02619 15.6465 7.16667 16.0001 7.16667C16.3537 7.16667 16.6928 7.02619 16.9429 6.77614C17.1929 6.52609 17.3334 6.18696 17.3334 5.83333C17.3334 5.47971 17.1929 5.14057 16.9429 4.89052C16.6928 4.64048 16.3537 4.5 16.0001 4.5C15.6465 4.5 15.3073 4.64048 15.0573 4.89052C14.8072 5.14057 14.6667 5.47971 14.6667 5.83333Z" stroke="black" stroke-width="2" stroke-linecap="round" stroke-linejoin="round"/>
<path d="M4 23.1667L10.6667 24.5L11.6667 22.5" stroke="black" stroke-width="2" stroke-linecap="round" stroke-linejoin="round"/>
<path d="M18.6668 28.5003V23.167L13.3335 19.167L14.6668 11.167" stroke="black" stroke-width="2" stroke-linecap="round" stroke-linejoin="round"/>
<path d="M8 16.5003V12.5003L14.6667 11.167L18.6667 15.167L22.6667 16.5003" stroke="black" stroke-width="2" stroke-linecap="round" stroke-linejoin="round"/>
<path d="M26.0002 27.1663C26.177 27.1663 26.3465 27.0961 26.4716 26.9711C26.5966 26.8461 26.6668 26.6765 26.6668 26.4997C26.6668 26.3229 26.5966 26.1533 26.4716 26.0283C26.3465 25.9032 26.177 25.833 26.0002 25.833C25.8234 25.833 25.6538 25.9032 25.5288 26.0283C25.4037 26.1533 25.3335 26.3229 25.3335 26.4997C25.3335 26.6765 25.4037 26.8461 25.5288 26.9711C25.6538 27.0961 25.8234 27.1663 26.0002 27.1663Z" fill="black" stroke="black" stroke-width="2" stroke-linecap="round" stroke-linejoin="round"/>
</g>
<defs>
<clipPath id="clip0_24708_2546">
<rect width="32" height="32" fill="white" transform="translate(0 0.5)"/>
</clipPath>
</defs>
</svg>
