<svg width="33" height="33" viewBox="0 0 33 33" fill="none" xmlns="http://www.w3.org/2000/svg">
<g clip-path="url(#clip0_24708_2391)">
<path d="M21.8333 5.83333C21.8333 6.18696 21.9737 6.52609 22.2238 6.77614C22.4738 7.02619 22.813 7.16667 23.1666 7.16667C23.5202 7.16667 23.8593 7.02619 24.1094 6.77614C24.3594 6.52609 24.4999 6.18696 24.4999 5.83333C24.4999 5.47971 24.3594 5.14057 24.1094 4.89052C23.8593 4.64048 23.5202 4.5 23.1666 4.5C22.813 4.5 22.4738 4.64048 22.2238 4.89052C21.9737 5.14057 21.8333 5.47971 21.8333 5.83333Z" stroke="white" stroke-width="2" stroke-linecap="round" stroke-linejoin="round"/>
<path d="M7.83325 20.5H12.4999L13.4999 18.5" stroke="white" stroke-width="2" stroke-linecap="round" stroke-linejoin="round"/>
<path d="M19.1668 25.833V19.1663L15.8335 15.1663L19.1668 9.83301" stroke="white" stroke-width="2" stroke-linecap="round" stroke-linejoin="round"/>
<path d="M11.1665 11.1663L15.1665 9.83301H20.4998L21.8332 13.833H25.8332" stroke="white" stroke-width="2" stroke-linecap="round" stroke-linejoin="round"/>
<path d="M23.8332 28.5003C24.01 28.5003 24.1796 28.4301 24.3046 28.3051C24.4296 28.18 24.4998 28.0105 24.4998 27.8337C24.4998 27.6568 24.4296 27.4873 24.3046 27.3623C24.1796 27.2372 24.01 27.167 23.8332 27.167C23.6564 27.167 23.4868 27.2372 23.3618 27.3623C23.2367 27.4873 23.1665 27.6568 23.1665 27.8337C23.1665 28.0105 23.2367 28.18 23.3618 28.3051C23.4868 28.4301 23.6564 28.5003 23.8332 28.5003Z" fill="white" stroke="white" stroke-width="2" stroke-linecap="round" stroke-linejoin="round"/>
<path d="M4.5 24.5C4.5 25.236 5.69333 25.8333 7.16667 25.8333H25.8333C27.3067 25.8333 28.5 25.236 28.5 24.5" stroke="white" stroke-width="2" stroke-linecap="round" stroke-linejoin="round"/>
<path d="M9.16667 28.5003C9.34348 28.5003 9.51305 28.4301 9.63807 28.3051C9.7631 28.18 9.83333 28.0105 9.83333 27.8337C9.83333 27.6568 9.7631 27.4873 9.63807 27.3623C9.51305 27.2372 9.34348 27.167 9.16667 27.167C8.98986 27.167 8.82029 27.2372 8.69526 27.3623C8.57024 27.4873 8.5 27.6568 8.5 27.8337C8.5 28.0105 8.57024 28.18 8.69526 28.3051C8.82029 28.4301 8.98986 28.5003 9.16667 28.5003Z" fill="white" stroke="white" stroke-width="2" stroke-linecap="round" stroke-linejoin="round"/>
</g>
<defs>
<clipPath id="clip0_24708_2391">
<rect width="32" height="32" fill="white" transform="translate(0.5 0.5)"/>
</clipPath>
</defs>
</svg>
