<svg width="32" height="33" viewBox="0 0 32 33" fill="none" xmlns="http://www.w3.org/2000/svg">
<g clip-path="url(#clip0_24708_2593)">
<path d="M20 12.5003C20 12.8539 20.1405 13.1931 20.3905 13.4431C20.6406 13.6932 20.9797 13.8337 21.3333 13.8337C21.687 13.8337 22.0261 13.6932 22.2761 13.4431C22.5262 13.1931 22.6667 12.8539 22.6667 12.5003C22.6667 12.1467 22.5262 11.8076 22.2761 11.5575C22.0261 11.3075 21.687 11.167 21.3333 11.167C20.9797 11.167 20.6406 11.3075 20.3905 11.5575C20.1405 11.8076 20 12.1467 20 12.5003Z" stroke="black" stroke-width="2" stroke-linecap="round" stroke-linejoin="round"/>
<path d="M8 15.1667L13.3333 12.5L18 16.5L16 19.1667" stroke="black" stroke-width="2" stroke-linecap="round" stroke-linejoin="round"/>
<path d="M4 22.8331C4.41506 23.0394 4.86999 23.1532 5.33333 23.1664C5.85266 23.1773 6.36683 23.0616 6.83143 22.8293C7.29604 22.597 7.69711 22.255 8 21.8331C8.30289 21.4111 8.70396 21.0692 9.16857 20.8369C9.63317 20.6046 10.1473 20.4888 10.6667 20.4997C11.186 20.4888 11.7002 20.6046 12.1648 20.8369C12.6294 21.0692 13.0304 21.4111 13.3333 21.8331C13.6362 22.255 14.0373 22.597 14.5019 22.8293C14.9665 23.0616 15.4807 23.1773 16 23.1664C16.5193 23.1773 17.0335 23.0616 17.4981 22.8293C17.9627 22.597 18.3638 22.255 18.6667 21.8331C18.9696 21.4111 19.3706 21.0692 19.8352 20.8369C20.2998 20.6046 20.814 20.4888 21.3333 20.4997C21.8527 20.4888 22.3668 20.6046 22.8314 20.8369C23.296 21.0692 23.6971 21.4111 24 21.8331C24.3029 22.255 24.704 22.597 25.1686 22.8293C25.6332 23.0616 26.1473 23.1773 26.6667 23.1664C27.13 23.1532 27.5849 23.0394 28 22.8331" stroke="black" stroke-width="2" stroke-linecap="round" stroke-linejoin="round"/>
</g>
<defs>
<clipPath id="clip0_24708_2593">
<rect width="32" height="32" fill="white" transform="translate(0 0.5)"/>
</clipPath>
</defs>
</svg>
